<svg xmlns="http://www.w3.org/2000/svg" width="20" height="20" fill="currentColor" viewBox="0 0 20 20"><path d="m17.71 10.71-2 2c-.2.2-.45.29-.71.29s-.51-.1-.71-.29a.996.996 0 0 1 0-1.41l.29-.29h-1.59c-.55 0-1-.45-1-1s.45-1 1-1h1.59l-.29-.29a.996.996 0 1 1 1.41-1.41l2 2a1 1 0 0 1 0 1.42Zm-9-5L9 5.42v1.59c0 .55.45 1 1 1s1-.45 1-1V5.42l.29.29c.2.2.45.29.71.29s.51-.1.71-.29a.996.996 0 0 0 0-1.41l-2-2a1 1 0 0 0-1.42 0l-2 2A.996.996 0 1 0 8.7 5.71ZM5.41 11H7c.55 0 1-.45 1-1s-.45-1-1-1H5.41l.29-.29A.996.996 0 1 0 4.29 7.3l-2 2a1 1 0 0 0 0 1.42l2 2c.2.2.45.29.71.29s.51-.1.71-.29a.996.996 0 0 0 0-1.41l-.29-.29Zm5.88 3.29-.29.29v-1.59c0-.55-.45-1-1-1s-1 .45-1 1v1.59l-.29-.29A.996.996 0 1 0 7.3 15.7l2 2c.09.09.2.17.33.22.12.05.25.08.38.08s.26-.03.38-.08.23-.12.33-.22l2-2a.996.996 0 1 0-1.41-1.41Z"/></svg>
