<svg xmlns="http://www.w3.org/2000/svg" width="20" height="20" fill="currentColor" viewBox="0 0 20 20"><path d="M16.99 10.94c0-.09-.02-.17-.05-.26l-.03-.09a.8.8 0 0 0-.2-.29l-7-7c-.09-.09-.19-.15-.29-.2l-.09-.03a.8.8 0 0 0-.26-.05c-.02 0-.04-.01-.06-.01H4.87c-1.04 0-1.86.97-1.86 2.2v9.6c0 1.23.82 2.2 1.86 2.2h10.29c1.04 0 1.86-.97 1.86-2.2v-3.8s-.01-.04-.01-.06Zm-3.4-.94h-3.55s-.03-.11-.03-.2V6.41L13.6 10Zm1.38 5H5.03S5 14.89 5 14.8V5.2c0-.09.02-.15.03-.2H8v4.8c0 1.23.82 2.2 1.86 2.2H15v2.8c0 .09-.02.15-.03.2"/></svg>
