<svg xmlns="http://www.w3.org/2000/svg" width="20" height="20" fill="currentColor" viewBox="0 0 20 20"><path d="M14 15c0 .55.45 1 1 1h2c.55 0 1 .45 1 1s-.45 1-1 1h-2c-1.65 0-3-1.35-3-3s1.35-3 3-3h2c.55 0 1 .45 1 1s-.45 1-1 1h-2c-.55 0-1 .45-1 1m-4-6.2V5H5.03S5 5.11 5 5.2v9.6c0 .09.02.15.03.2H10c.55 0 1 .45 1 1s-.45 1-1 1H4.86C3.82 17 3 16.03 3 14.8V5.2C3 3.97 3.82 3 4.86 3H11s.04.01.06.01c.09 0 .17.02.25.05.03.01.06.02.1.03.11.05.21.11.29.2l6 6c.09.09.15.19.2.3.01.03.02.06.03.1.03.08.04.16.05.25v.1c0 .11-.02.21-.06.32v.03c-.05.11-.12.21-.2.29 0 0-.01.02-.02.03s-.03.02-.05.03c-.07.06-.14.11-.23.15-.03.01-.06.03-.09.04-.11.04-.22.07-.34.07h-5.14c-1.04 0-1.86-.97-1.86-2.2Zm2-2.39V8.8c0 .09.02.15.03.2h2.55l-2.59-2.59Z"/></svg>
