<svg xmlns="http://www.w3.org/2000/svg" width="72" height="115" fill="none" viewBox="0 0 72 115"><rect width="29" height="5" x="4" y="4" fill="var(--illustration-accent)" rx="2.5"/><path stroke="var(--illustration-accent)" stroke-linecap="square" d="M37 6.5h31"/><rect width="11" height="11" x="4.5" y="11.5" fill="var(--illustration-accent)" fill-opacity=".05" rx="2.5"/><rect width="11" height="11" x="4.5" y="11.5" stroke="var(--illustration-accent)" rx="2.5"/><rect width="5" height="5" fill="var(--illustration-accent)" rx="2.5" transform="matrix(-1 0 0 1 12.5 14.5)"/><rect width="10" height="5" x="4" y="26" fill="var(--illustration-text-secondary)" rx="2.5"/><rect width="26" height="5" x="26" y="26" fill="var(--illustration-text)" rx="2.5"/><rect width="15" height="5" x="4" y="36" fill="var(--illustration-text-secondary)" rx="2.5"/><rect width="23" height="5" x="26" y="36" fill="var(--illustration-text)" rx="2.5"/><rect width="9" height="5" x="4" y="46" fill="var(--illustration-text-secondary)" rx="2.5"/><rect width="40" height="5" x="26" y="46" fill="var(--illustration-text)" rx="2.5"/><rect width="29" height="5" x="4" y="62" fill="var(--illustration-accent)" rx="2.5"/><path stroke="var(--illustration-accent)" stroke-linecap="square" d="M37 64.5h31"/><rect width="11" height="11" x="4.5" y="69.5" fill="var(--illustration-accent)" fill-opacity=".05" rx="2.5"/><rect width="11" height="11" x="4.5" y="69.5" stroke="var(--illustration-accent)" rx="2.5"/><rect width="5" height="5" fill="var(--illustration-accent)" rx="2.5" transform="matrix(-1 0 0 1 12.5 72.5)"/><rect width="10" height="5" x="4" y="84" fill="var(--illustration-text-secondary)" rx="2.5"/><rect width="26" height="5" x="26" y="84" fill="var(--illustration-text)" rx="2.5"/><rect width="15" height="5" x="4" y="94" fill="var(--illustration-text-secondary)" rx="2.5"/><rect width="23" height="5" x="26" y="94" fill="var(--illustration-text)" rx="2.5"/><rect width="9" height="5" x="4" y="104" fill="var(--illustration-text-secondary)" rx="2.5"/><rect width="40" height="5" x="26" y="104" fill="var(--illustration-text)" rx="2.5"/></svg>
