<svg xmlns="http://www.w3.org/2000/svg" width="129" height="116" fill="none" viewBox="0 0 129 116"><rect width="68" height="12" x="7" y="7" fill="var(--illustration-box)" rx="4"/><rect width="32" height="8" x="7" y="31" fill="var(--illustration-box)" rx="4"/><rect width="32" height="8" x="7" y="45" fill="var(--illustration-box)" rx="4"/><rect width="32" height="8" x="7" y="59" fill="var(--illustration-box)" rx="4"/><rect width="32" height="8" x="7" y="73" fill="var(--illustration-box)" rx="4"/><rect width="32" height="8" x="7" y="87" fill="var(--illustration-box)" rx="4"/><rect width="72.5" height="16.5" x="4.75" y="4.75" fill="var(--illustration-accent)" fill-opacity=".05" rx="5.25"/><rect width="72.5" height="16.5" x="4.75" y="4.75" stroke="var(--illustration-accent)" stroke-width="1.5" rx="5.25"/><path fill="var(--illustration-accent)" d="M4 10a6 6 0 0 1 6-6h6v6a6 6 0 0 1-6 6H4z"/><rect width="36.5" height="68.5" x="4.75" y="28.75" fill="var(--illustration-accent)" fill-opacity=".05" rx="5.25"/><rect width="36.5" height="68.5" x="4.75" y="28.75" stroke="var(--illustration-accent)" stroke-width="1.5" rx="5.25"/><path fill="var(--illustration-accent)" d="M4 34a6 6 0 0 1 6-6h6v6a6 6 0 0 1-6 6H4z"/><path fill="var(--illustration-box)" d="M119 31a3 3 0 0 1 3 3v72a3 3 0 0 1-3 3H58a3 3 0 0 1-3-3V34a3 3 0 0 1 3-3zM64 96a4 4 0 0 0 0 8h32a4 4 0 0 0 0-8zm0-12a4 4 0 0 0 0 8h49a4 4 0 0 0 0-8zm0-12a4 4 0 0 0 0 8h32a4 4 0 0 0 0-8zm0-12a4 4 0 0 0 0 8h40a4 4 0 0 0 0-8zm0-12a4 4 0 0 0 0 8h30a4 4 0 0 0 0-8zm0-12a4 4 0 0 0 0 8h49a4 4 0 0 0 0-8z"/><rect width="71.5" height="82.5" x="52.75" y="28.75" fill="var(--illustration-accent)" fill-opacity=".05" rx="5.25"/><rect width="71.5" height="82.5" x="52.75" y="28.75" stroke="var(--illustration-accent)" stroke-width="1.5" rx="5.25"/><path fill="var(--illustration-accent)" d="M52 34a6 6 0 0 1 6-6h6v6a6 6 0 0 1-6 6h-6z"/></svg>
