<svg xmlns="http://www.w3.org/2000/svg" width="48" height="24" fill="currentColor" viewBox="0 0 48 24"><path d="M16 1a7 7 0 0 1 7 7v8a7 7 0 0 1-7 7H8a7 7 0 0 1-7-7V7a6 6 0 0 1 6-6zm24 0a7 7 0 0 1 7 7v8a7 7 0 0 1-7 7h-8a7 7 0 0 1-7-7V7a6 6 0 0 1 6-6zM12 8a4 4 0 0 1-4 4H3v4l.007.257A5 5 0 0 0 8 21h8l.257-.007a5 5 0 0 0 4.736-4.736L21 16V8a5 5 0 0 0-4.743-4.993L16 3h-4zm24-5v5a4 4 0 0 1-4 4h-5v4l.007.257A5 5 0 0 0 32 21h8l.257-.007a5 5 0 0 0 4.736-4.736L45 16V8a5 5 0 0 0-4.743-4.993L40 3zM14 6a4 4 0 0 1 4 4v4a4 4 0 0 1-4 4h-4a4 4 0 0 1-3.995-3.794L6 14h2a6 6 0 0 0 6-6zm24 0a4 4 0 0 1 4 4v4a4 4 0 0 1-4 4h-4a4 4 0 0 1-3.995-3.794L30 14h2a6 6 0 0 0 6-6z"/></svg>
