<svg xmlns="http://www.w3.org/2000/svg" width="48" height="16" fill="currentColor" viewBox="0 0 48 16"><path d="M27 1a4 4 0 0 1 4 4v6a4 4 0 0 1-4 4h-6a4 4 0 0 1-4-4V5a4 4 0 0 1 4-4zm-4.5 2.75a1.75 1.75 0 0 0-1.75 1.75v6.75h1.5v-3h3.5v3h1.5V5.5a1.75 1.75 0 0 0-1.75-1.75zm3 1.5a.25.25 0 0 1 .25.25v2.25h-3.5V5.5a.25.25 0 0 1 .25-.25zM11 1a4 4 0 0 1 4 4v6a4 4 0 0 1-4 4H5a4 4 0 0 1-4-4V5a4 4 0 0 1 4-4zM6.5 3.75A1.75 1.75 0 0 0 4.75 5.5v6.75h1.5v-3h3.5v3h1.5V5.5A1.75 1.75 0 0 0 9.5 3.75zm3 1.5a.25.25 0 0 1 .25.25v2.25h-3.5V5.5a.25.25 0 0 1 .25-.25zM43 1a4 4 0 0 1 4 4v6a4 4 0 0 1-4 4h-6a4 4 0 0 1-4-4V5a4 4 0 0 1 4-4zm-4.5 2.75a1.75 1.75 0 0 0-1.75 1.75v6.75h1.5v-3h3.5v3h1.5V5.5a1.75 1.75 0 0 0-1.75-1.75zm3 1.5a.25.25 0 0 1 .25.25v2.25h-3.5V5.5a.25.25 0 0 1 .25-.25z"/></svg>
