<svg xmlns="http://www.w3.org/2000/svg" width="48" height="16" fill="currentColor" viewBox="0 0 48 16"><path d="M11 1a4 4 0 0 1 4 4v6a4 4 0 0 1-4 4H5a4 4 0 0 1-4-4V5a4 4 0 0 1 4-4zM6.5 3.75A1.75 1.75 0 0 0 4.75 5.5v6.75h1.5v-3h3.5v3h1.5V5.5A1.75 1.75 0 0 0 9.5 3.75zm3 1.5a.25.25 0 0 1 .25.25v2.25h-3.5V5.5a.25.25 0 0 1 .25-.25zM27 1a4 4 0 0 1 4 4v6a4 4 0 0 1-4 4h-6a4 4 0 0 1-4-4V5a4 4 0 0 1 4-4zm-6.25 2.75v8.5h4.75a1.75 1.75 0 0 0 1.75-1.75v-2c0-.698-.41-1.3-1-1.58V5.5a1.75 1.75 0 0 0-1.75-1.75zm4.75 4.5a.25.25 0 0 1 .25.25v2a.25.25 0 0 1-.25.25h-3.25v-2.5zm-1-3a.25.25 0 0 1 .25.25v1.25h-2.5v-1.5zM43 1a4 4 0 0 1 4 4v6a4 4 0 0 1-4 4h-6a4 4 0 0 1-4-4V5a4 4 0 0 1 4-4zm-4.5 2.75a1.75 1.75 0 0 0-1.75 1.75v5c0 .966.783 1.75 1.75 1.75h3.75v-1.5H38.5a.25.25 0 0 1-.25-.25v-5a.25.25 0 0 1 .25-.25h3.75v-1.5z"/></svg>
