<svg xmlns="http://www.w3.org/2000/svg" width="36" height="36" fill="currentColor" viewBox="0 0 36 36"><path d="M27 2a7 7 0 0 1 7 7v18a7 7 0 0 1-7 7H9a7 7 0 0 1-7-7V9a7 7 0 0 1 7-7zM9 4a5 5 0 0 0-5 5v18l.007.257a5 5 0 0 0 4.736 4.736L9 32h18l.257-.007A5 5 0 0 0 32 27V9a5 5 0 0 0-5-5zm1.166 20.773a.75.75 0 0 1 1.06 1.061l-1.9 1.901h1.017a.75.75 0 1 1 0 1.5H7.515a.75.75 0 0 1-.75-.75v-2.828a.75.75 0 0 1 1.5 0v1.018zm14.607 0a.75.75 0 0 1 1.061 0l1.901 1.902v-1.018a.75.75 0 1 1 1.5 0v2.828a.75.75 0 0 1-.75.75h-2.828a.75.75 0 0 1 0-1.5h1.018l-1.902-1.901a.75.75 0 0 1 0-1.06M20 12a4 4 0 0 1 4 4v4a4 4 0 0 1-4 4h-4a4 4 0 0 1-4-4v-4a4 4 0 0 1 4-4zm-9.657-5.235a.75.75 0 0 1 0 1.5H9.325l1.902 1.901a.75.75 0 1 1-1.061 1.06l-1.901-1.9v1.017a.75.75 0 0 1-1.5 0V7.515a.75.75 0 0 1 .75-.75zm18.142 0a.75.75 0 0 1 .75.75v2.828a.75.75 0 0 1-1.5 0V9.325l-1.901 1.902a.75.75 0 0 1-1.06-1.061l1.9-1.901h-1.017a.75.75 0 0 1 0-1.5z"/></svg>
